<svg xmlns="http://www.w3.org/2000/svg" viewBox="0 0 285.7 224.35"><defs><style>.cls-1{isolation:isolate;}</style></defs><title>back</title><g id="Layer_2" data-name="Layer 2"><g id="Layer_1-2" data-name="Layer 1"><g id="Arrow"><g id="_5-interface_-_arrow_right" data-name="5-interface - arrow right" class="cls-1"><g id="_5-interface_-_arrow_right-2" data-name="5-interface - arrow right"><path d="M0,112.31c0,.21.15.37.16.58a9.36,9.36,0,0,0,2.14,5.17c.31.43.19,1,.58,1.4s.8.21,1.15.48c.15.12.24.32.4.44L115.64,221.44a10,10,0,0,0,14.09-14.09l-93.5-85H275.5a10.19,10.19,0,1,0,0-20.38H36.23l93.5-85A10,10,0,1,0,115.64,2.92L3.9,104.48c-.14.12-.36.09-.49.21s-.36.06-.5.2-.08.36-.21.5a10.12,10.12,0,0,0-2.6,6.28c0,.12-.07.22-.07.35s0,.1,0,.15S0,112.26,0,112.31Z"/></g></g></g></g></g></svg>