<?xml version="1.0" encoding="utf-8"?>
<!-- Generator: Adobe Illustrator 22.0.1, SVG Export Plug-In . SVG Version: 6.00 Build 0)  -->
<svg version="1.1" id="Layer_1" xmlns="http://www.w3.org/2000/svg" xmlns:xlink="http://www.w3.org/1999/xlink" x="0px" y="0px"
	 viewBox="0 0 177 85" style="enable-background:new 0 0 177 85;" xml:space="preserve">
<style type="text/css">
	.st0{filter:url(#Adobe_OpacityMaskFilter);}
	.st1{fill:#FFFFFF;}
	.st2{mask:url(#mask-2_1_);fill:none;}
</style>
<title>Lundbergs_logo_tagline_center_grey_vect</title>
<desc>Created with Sketch.</desc>
<g id="Page-1">
	<g id="Lundbergs_logo_tagline_center_grey_vect">
		<path id="Fill-1" d="M42.7,70.6c0-0.3-0.1-0.5-0.3-0.6l-1.9-1.9c-0.1-0.1-0.2-0.3-0.3-0.5c-0.1-0.2-0.1-0.4-0.1-0.6v-0.7
			c0-0.3,0.1-0.5,0.3-0.7c0.2-0.2,0.5-0.3,0.7-0.3h1c0.3,0,0.5,0.1,0.7,0.3c0.2,0.2,0.3,0.5,0.3,0.7v1h-0.5v-1
			c0-0.1-0.1-0.3-0.2-0.4c-0.1-0.1-0.2-0.2-0.4-0.2h-1c-0.1,0-0.3,0-0.4,0.2c-0.1,0.1-0.2,0.2-0.2,0.4V67c0,0.3,0.1,0.5,0.3,0.6
			l1.9,1.9c0.1,0.1,0.2,0.3,0.3,0.5c0.1,0.2,0.1,0.4,0.1,0.6v0.9c0,0.3-0.1,0.5-0.3,0.7c-0.2,0.2-0.5,0.3-0.7,0.3h-1
			c-0.3,0-0.5-0.1-0.7-0.3c-0.2-0.2-0.3-0.5-0.3-0.7v-1h0.5v1c0,0.1,0.1,0.3,0.2,0.4c0.1,0.1,0.2,0.2,0.4,0.2h1
			c0.1,0,0.3-0.1,0.4-0.2c0.1-0.1,0.2-0.2,0.2-0.4V70.6"/>
		<polyline id="Fill-2" points="47.5,72.6 44.9,72.6 44.9,65.3 47.5,65.3 47.5,65.8 45.4,65.8 45.4,68.5 47,68.5 47,69 45.4,69 
			45.4,72.1 47.5,72.1 47.5,72.6 		"/>
		<polyline id="Fill-3" points="51.6,65.8 49.5,65.8 49.5,68.5 51.1,68.5 51.1,69 49.5,69 49.5,72.6 49,72.6 49,65.3 51.6,65.3 
			51.6,65.8 		"/>
		<path id="Fill-4" d="M55.7,66.3c0-0.1-0.1-0.3-0.2-0.4c-0.1-0.1-0.2-0.2-0.4-0.2h-1c-0.1,0-0.3,0-0.4,0.2
			c-0.1,0.1-0.2,0.2-0.2,0.4v5.2c0,0.1,0.1,0.3,0.2,0.4c0.1,0.1,0.2,0.2,0.4,0.2h1c0.1,0,0.3-0.1,0.4-0.2c0.1-0.1,0.2-0.2,0.2-0.4
			V66.3z M56.2,71.6c0,0.3-0.1,0.5-0.3,0.7c-0.2,0.2-0.5,0.3-0.7,0.3h-1c-0.3,0-0.5-0.1-0.7-0.3c-0.2-0.2-0.3-0.5-0.3-0.7v-5.2
			c0-0.3,0.1-0.5,0.3-0.7c0.2-0.2,0.5-0.3,0.7-0.3h1c0.3,0,0.5,0.1,0.7,0.3c0.2,0.2,0.3,0.5,0.3,0.7V71.6L56.2,71.6z"/>
		<polyline id="Fill-5" points="61.5,65.3 59.9,72.6 59.1,72.6 57.6,65.3 58.1,65.3 59.5,72 60.9,65.3 61.5,65.3 		"/>
		<polyline id="Fill-6" points="65.6,72.6 62.9,72.6 62.9,65.3 65.6,65.3 65.6,65.8 63.5,65.8 63.5,68.5 65,68.5 65,69 63.5,69 
			63.5,72.1 65.6,72.1 65.6,72.6 		"/>
		<polyline id="Fill-7" points="70.2,72.6 69.8,72.6 67.6,66.5 67.6,72.6 67.1,72.6 67.1,65.3 67.7,65.3 69.7,70.9 69.7,65.3 
			70.2,65.3 70.2,72.6 		"/>
		<polyline id="Fill-8" points="74.8,65.8 73.5,65.8 73.5,72.6 73,72.6 73,65.8 71.7,65.8 71.7,65.3 74.8,65.3 74.8,65.8 		"/>
		<polyline id="Fill-9" points="85.4,68.6 87.3,72.6 86.6,72.6 85.1,69.2 84.1,71 84.1,72.6 83.6,72.6 83.6,65.3 84.1,65.3 
			84.1,70.1 86.6,65.3 87.1,65.3 85.4,68.6 		"/>
		<polyline id="Fill-10" points="94.5,65.3 93.2,72.6 92.4,72.6 91.4,66.8 90.4,72.6 89.6,72.6 88.4,65.3 88.9,65.3 90,71.9 
			91.2,65.3 91.6,65.3 92.8,71.9 94,65.3 94.5,65.3 		"/>
		<path id="Fill-11" d="M98.4,70.6c0-0.3-0.1-0.5-0.3-0.6l-1.9-1.9c-0.1-0.1-0.2-0.3-0.3-0.5c-0.1-0.2-0.1-0.4-0.1-0.6v-0.7
			c0-0.3,0.1-0.5,0.3-0.7c0.2-0.2,0.5-0.3,0.7-0.3h1c0.3,0,0.5,0.1,0.7,0.3c0.2,0.2,0.3,0.5,0.3,0.7v1h-0.5v-1
			c0-0.1-0.1-0.3-0.2-0.4c-0.1-0.1-0.2-0.2-0.4-0.2h-1c-0.1,0-0.3,0-0.4,0.2c-0.1,0.1-0.2,0.2-0.2,0.4V67c0,0.3,0.1,0.5,0.3,0.6
			l1.9,1.9c0.1,0.1,0.2,0.3,0.3,0.5c0.1,0.2,0.1,0.4,0.1,0.6v0.9c0,0.3-0.1,0.5-0.3,0.7c-0.2,0.2-0.5,0.3-0.7,0.3h-1
			c-0.3,0-0.5-0.1-0.7-0.3c-0.2-0.2-0.3-0.5-0.3-0.7v-1h0.5v1c0,0.1,0.1,0.3,0.2,0.4c0.1,0.1,0.2,0.2,0.4,0.2h1
			c0.1,0,0.3-0.1,0.4-0.2c0.1-0.1,0.2-0.2,0.2-0.4V70.6"/>
		<polyline id="Fill-12" points="113.7,65.3 112.4,72.6 111.6,72.6 110.6,66.8 109.6,72.6 108.8,72.6 107.6,65.3 108.1,65.3 
			109.2,71.9 110.4,65.3 110.8,65.3 112,71.9 113.1,65.3 113.7,65.3 		"/>
		<path id="Fill-13" d="M117.3,70.8l-1-4.9l-1,4.9H117.3z M118.2,72.6h-0.6l-0.3-1.3h-2.3l-0.3,1.3h-0.6l1.6-7.3h0.8L118.2,72.6
			L118.2,72.6z"/>
		<path id="Fill-14" d="M122.2,70.6c0-0.3-0.1-0.5-0.3-0.6l-1.9-1.9c-0.1-0.1-0.2-0.3-0.3-0.5c-0.1-0.2-0.1-0.4-0.1-0.6v-0.7
			c0-0.3,0.1-0.5,0.3-0.7c0.2-0.2,0.5-0.3,0.7-0.3h1c0.3,0,0.5,0.1,0.7,0.3c0.2,0.2,0.3,0.5,0.3,0.7v1h-0.5v-1
			c0-0.1-0.1-0.3-0.2-0.4c-0.1-0.1-0.2-0.2-0.4-0.2h-1c-0.1,0-0.3,0-0.4,0.2c-0.1,0.1-0.2,0.2-0.2,0.4V67c0,0.3,0.1,0.5,0.3,0.6
			l1.9,1.9c0.1,0.1,0.2,0.3,0.3,0.5c0.1,0.2,0.1,0.4,0.1,0.6v0.9c0,0.3-0.1,0.5-0.3,0.7c-0.2,0.2-0.5,0.3-0.7,0.3h-1
			c-0.3,0-0.5-0.1-0.7-0.3c-0.2-0.2-0.3-0.5-0.3-0.7v-1h0.5v1c0,0.1,0.1,0.3,0.2,0.4c0.1,0.1,0.2,0.2,0.4,0.2h1
			c0.1,0,0.3-0.1,0.4-0.2c0.1-0.1,0.2-0.2,0.2-0.4V70.6"/>
		<polyline id="Fill-15" points="127.3,65.8 126,65.8 126,72.6 125.5,72.6 125.5,65.8 124.2,65.8 124.2,65.3 127.3,65.3 127.3,65.8 
					"/>
		<polyline id="Fill-16" points="131.5,72.6 128.8,72.6 128.8,65.3 131.5,65.3 131.5,65.8 129.4,65.8 129.4,68.5 130.9,68.5 
			130.9,69 129.4,69 129.4,72.1 131.5,72.1 131.5,72.6 		"/>
		<path id="Fill-17" d="M136.1,71.6c0,0.3-0.1,0.5-0.3,0.7c-0.2,0.2-0.5,0.3-0.7,0.3h-1c-0.3,0-0.5-0.1-0.7-0.3
			c-0.2-0.2-0.3-0.5-0.3-0.7v-5.2c0-0.3,0.1-0.5,0.3-0.7c0.2-0.2,0.5-0.3,0.7-0.3h1c0.3,0,0.5,0.1,0.7,0.3c0.2,0.2,0.3,0.5,0.3,0.7
			v1h-0.5v-1c0-0.1-0.1-0.3-0.2-0.4c-0.1-0.1-0.2-0.2-0.4-0.2h-1c-0.1,0-0.3,0-0.4,0.2c-0.1,0.1-0.2,0.2-0.2,0.4v5.2
			c0,0.1,0.1,0.3,0.2,0.4c0.1,0.1,0.2,0.2,0.4,0.2h1c0.1,0,0.3-0.1,0.4-0.2c0.1-0.1,0.2-0.2,0.2-0.4v-1h0.5V71.6"/>
		<polyline id="Fill-18" points="36.8,52.6 26.9,52.6 26.9,29.7 30.2,29.7 30.2,49.4 36.8,49.4 36.8,52.6 		"/>
		<path id="Fill-19" d="M50.7,49.4c0,0.9-0.3,1.7-0.9,2.3c-0.6,0.6-1.4,0.9-2.3,0.9h-4.9c-0.9,0-1.7-0.3-2.3-0.9
			c-0.6-0.6-0.9-1.4-0.9-2.3V29.7h3.3v19.7h4.9V29.7h3.3V49.4"/>
		<polyline id="Fill-20" points="65,52.6 62.2,52.6 56.8,37.6 56.8,52.6 53.6,52.6 53.6,29.7 57.1,29.7 61.8,43.2 61.8,29.7 
			65,29.7 65,52.6 		"/>
		<path id="Fill-21" d="M71.2,49.4h4.9V33h-4.9V49.4z M79.4,49.4c0,0.9-0.3,1.7-0.9,2.3c-0.6,0.6-1.4,0.9-2.3,0.9h-8.2V29.7h8.2
			c0.9,0,1.7,0.3,2.3,0.9c0.6,0.6,0.9,1.4,0.9,2.3V49.4L79.4,49.4z"/>
		<path id="Fill-22" d="M85.5,49.4h4.9v-7.2h-4.9V49.4z M85.5,38.9h4.9V33h-4.9V38.9z M93.7,49.4c0,0.9-0.3,1.7-1,2.3
			c-0.6,0.6-1.4,0.9-2.3,0.9h-8.2V29.7h8.2c0.9,0,1.7,0.3,2.3,0.9c0.6,0.6,1,1.4,1,2.3v5c0,1.2-0.5,2.1-1.6,2.5
			c1.1,0.4,1.6,1.3,1.6,2.5V49.4L93.7,49.4z"/>
		<polyline id="Fill-23" points="106.5,52.6 96.6,52.6 96.6,29.7 106.5,29.7 106.5,33 99.9,33 99.9,38.9 104.8,38.9 104.8,42.1 
			99.9,42.1 99.9,49.4 106.5,49.4 106.5,52.6 		"/>
		<path id="Fill-24" d="M112.4,40.2h4.9V33h-4.9V40.2z M120.6,52.6h-3.5l-2.2-9.2h-2.6v9.2h-3.3V29.7h8.2c0.9,0,1.7,0.3,2.3,0.9
			c0.6,0.6,0.9,1.4,0.9,2.3v7.2c0,1.8-0.9,2.8-2.6,3.1L120.6,52.6L120.6,52.6z"/>
		<path id="Fill-25" d="M134.9,49.4c0,0.9-0.3,1.7-1,2.3c-0.6,0.6-1.4,0.9-2.3,0.9h-4.9c-0.9,0-1.7-0.3-2.3-0.9
			c-0.6-0.6-1-1.4-1-2.3V33c0-0.9,0.3-1.7,1-2.3c0.6-0.6,1.4-0.9,2.3-0.9h4.9c0.9,0,1.7,0.3,2.3,0.9c0.6,0.6,1,1.4,1,2.3v3.3h-3.3
			V33h-4.9v16.4h4.9v-5.6h-2.5v-3.3h5.7V49.4"/>
		<path id="Fill-26" d="M147.7,42.5c1,1,1.6,2.2,1.6,3.5v3.4c0,0.9-0.3,1.7-0.9,2.3c-0.6,0.6-1.4,0.9-2.3,0.9H141
			c-0.9,0-1.7-0.3-2.3-0.9c-0.6-0.6-0.9-1.4-0.9-2.3v-3.3h3.3v3.3h4.9v-3.8l-6.6-6.6c-1-1-1.6-2.2-1.6-3.5V33c0-0.9,0.3-1.7,0.9-2.3
			c0.6-0.6,1.4-0.9,2.3-0.9h4.9c0.9,0,1.7,0.3,2.3,0.9c0.6,0.6,0.9,1.4,0.9,2.3v3.3H146V33H141v2.9L147.7,42.5"/>
		<path id="Fill-27" d="M70.5,16.4C70.5,16.5,70.5,16.5,70.5,16.4c-0.2,0.1-0.4,0-0.6,0c-0.7,0-1.1,0.6-1.1,1.2c0,1,0.9,1.4,2.3,1.4
			c1.1,0,1.9-0.8,1.9-1.7c0-1.6-2.1-2.3-2.1-3.4c0-0.8,0.7-1.1,1.4-1.1c0.6,0,1.4,0.4,1.4,0.9c0,0.3-0.2,0.5-0.4,0.5
			c-0.1,0-0.4-0.1-0.4-0.2c0-0.1,0-0.1,0.1-0.1c0.2,0,0.3-0.2,0.3-0.3c0-0.4-0.7-0.5-1-0.5c-0.5,0-0.9,0.2-0.9,0.8
			c0,1,2.1,1.7,2.1,3.3c0,1.4-1.3,2.2-2.4,2.2c-1.5,0-2.7-0.6-2.7-1.9c0-0.6,0.5-1.2,1.2-1.2C70,16.1,70.5,16.4,70.5,16.4"/>
		<path id="Fill-28" d="M77.4,15c0,0.2-0.1,0.3-0.3,0.3s-0.3-0.2-0.3-0.3s0.1-0.3,0.3-0.3S77.4,14.8,77.4,15z M76.6,16.5
			c0,0.1,0,0.1-0.1,0.1c-0.7,1.3-1.2,2-1.2,2.2c0,0.1,0.1,0.3,0.2,0.3c0.1,0,0.1-0.1,0.2-0.1c0,0,0.1,0,0.1,0c0,0.2-0.3,0.2-0.5,0.2
			c-0.2,0-0.4,0-0.5,0c-0.2,0-0.3,0-0.5,0c-0.2,0-0.2,0-0.2-0.1c0-0.1,0.1-0.1,0.3-0.1c0.3,0,0.8-1.3,1.3-2.1
			c-0.2,0-0.4,0.1-0.6,0.1c0,0-0.1,0-0.1-0.1c0-0.1,0-0.1,0.1-0.1C75.4,16.8,76.5,16.4,76.6,16.5C76.6,16.4,76.6,16.4,76.6,16.5
			L76.6,16.5z"/>
		<path id="Fill-29" d="M80,16.6c-0.7,0-1.3,1-1.6,1.5c-0.1,0.2-0.3,0.6-0.3,0.8c0,0.1,0.1,0.1,0.1,0.1c0.1,0,0.2-0.2,0.3-0.2
			c0.1,0,0.1,0,0.1,0.1c0,0.1-0.4,0.3-0.5,0.3c-0.3,0-0.4,0-0.5,0c-0.1,0-0.3,0-0.5,0c-0.1,0-0.1,0-0.1,0c0-0.1,0.1-0.1,0.2-0.1
			c0.2,0,0.3-0.2,0.4-0.3c0.3-0.6,0.7-1.3,1-1.9c-0.2,0-0.4,0.1-0.6,0.1c0,0-0.1,0-0.1-0.1c0-0.1,0.5-0.2,1.1-0.5
			c0.1,0,0.2-0.1,0.2-0.1c0,0,0.1,0,0.1,0.1c0,0.1-0.1,0.2-0.1,0.4c0.2-0.2,0.8-0.5,1.1-0.5c0.4,0,0.8,0.2,0.8,0.7
			c0,0.9-1.1,1.7-1.1,1.8c0,0.1,0.1,0.1,0.3,0.1c0.1,0,0.3-0.1,0.3-0.1c0,0,0.1,0,0.1,0c0,0.1-0.2,0.3-0.5,0.3c-0.2,0-0.3,0-0.5,0
			c-0.1,0-0.2,0-0.2,0c-0.1,0-0.1,0-0.1-0.1c0-0.1,0.1-0.2,0.2-0.3c0.3-0.3,0.9-1.2,0.9-1.8C80.4,16.8,80.3,16.6,80,16.6"/>
		<path id="Fill-30" d="M84,16.3c0.4,0,0.6,0.1,0.8,0.1c0.1,0,0.2-0.1,0.3-0.1c0.1,0,0.2,0.3,0.2,0.4c0,0.3-0.2,0.6-0.6,0.6
			c-0.1,0-0.4,0-0.4-0.2c0-0.1,0.1-0.1,0.1-0.1c0.1,0,0.3-0.2,0.3-0.3c0-0.2-0.1-0.2-0.7-0.2c-0.7,0-1.5,0.7-1.5,1.5
			c0,0.5,0.3,1,0.8,1c0.8,0,1.3-0.8,1.3-0.8c0,0,0.1,0,0.1,0.1c0,0.1-0.1,0.2-0.4,0.5c-0.3,0.4-0.7,0.5-1.2,0.5
			c-0.7,0-1.2-0.5-1.2-1.2C82.1,17.1,83,16.3,84,16.3"/>
		<path id="Fill-31" d="M88.3,16.5c-0.6,0-1.5,0.7-1.5,1.4c0.1,0,0.2,0.1,0.3,0.1c0.4,0,0.7-0.1,1-0.3c0.3-0.2,0.5-0.5,0.5-0.8
			C88.7,16.6,88.5,16.5,88.3,16.5z M88.8,16.2c0.3,0,0.5,0.1,0.5,0.5c0,0.3-0.3,0.8-0.7,1.1c-0.4,0.3-0.9,0.4-1.3,0.4
			c-0.1,0-0.3,0-0.4,0c0,0.5,0.5,0.9,0.9,0.9c0.4,0,0.8-0.2,0.9-0.3c0.1-0.1,0.2-0.1,0.2-0.1c0,0,0.1,0,0.1,0.1
			c0,0.1-0.5,0.4-0.6,0.5c-0.3,0.2-0.6,0.2-0.9,0.2c-0.7,0-1.3-0.4-1.3-1.1C86.1,17,87.8,16.2,88.8,16.2L88.8,16.2z"/>
		<path id="Fill-32" d="M92.8,19.3c-0.1,0-0.2,0-0.2-0.1c0-0.1,0.1-0.1,0.2-0.1c0.3,0,0.6-0.7,0.7-0.9l0.9-2
			c0.3-0.6,0.3-0.6,0.3-0.7c-0.3,0-0.4,0-0.5,0c0,0-0.1,0-0.1-0.1c0-0.1,1-0.4,1.1-0.4c0,0,0,0,0,0.1c0,0.1-0.1,0.2-0.1,0.3
			c-0.5,1.2-1.6,3.4-1.6,3.7c0,0.1,0.1,0.1,0.2,0.1c0.2,0,0.2-0.1,0.3-0.1c0,0,0.1,0,0.1,0.1c0,0.2-0.3,0.2-0.5,0.2
			c-0.1,0-0.3,0-0.4,0C93.1,19.2,92.9,19.3,92.8,19.3"/>
		<path id="Fill-33" d="M99.2,15.2c-0.3,0-0.7,0.2-0.7,0.6c0,0.3,0.1,0.4,0.2,0.7c0.3-0.1,1-0.5,1-1C99.7,15.2,99.5,15.2,99.2,15.2z
			 M97.3,19.1c0.7,0,1.3-0.4,1.3-1.1c0-0.4-0.2-0.8-0.4-1.1c-0.7,0.3-1.5,0.8-1.5,1.7C96.7,18.9,96.9,19.1,97.3,19.1z M98.2,16.7
			c-0.1-0.2-0.1-0.4-0.1-0.6c0-0.7,0.5-1.1,1.2-1.1c0.4,0,0.7,0.2,0.7,0.6c0,0.5-0.8,0.9-1.2,1c0.2,0.4,0.4,0.8,0.4,1.3
			c0,1-1.1,1.4-1.9,1.4c-0.5,0-1-0.3-1-0.8C96.3,17.5,97.4,17,98.2,16.7L98.2,16.7z"/>
		<path id="Fill-34" d="M101.4,19.1c0.6,0,1.6-1.5,1.6-2.1c0-0.2-0.2-0.3-0.3-0.3c-0.4,0-0.8,0.5-0.9,0.5c0,0-0.1,0-0.1-0.1
			c0-0.2,0.6-0.7,1-0.7c0.5,0,0.7,0.4,0.7,0.8c0,0.9-0.9,1.9-1.8,1.9c-0.7,0-1-0.5-1-1.1c0-1.1,1.1-2,1.9-2.6
			c0.2-0.1,0.8-0.6,1.1-0.6c0,0,0.1,0,0.1,0c0,0,0,0.1-0.2,0.1c-1.1,0.6-2.4,2.2-2.4,3.5C101.1,18.9,101.1,19.1,101.4,19.1"/>
		<path id="Fill-35" d="M107,15.2c-0.7,0-1.6,1.7-1.6,2.3c0,0.2,0.2,0.3,0.4,0.3c0.3,0,0.5-0.3,0.7-0.3c0.1,0,0.1,0,0.1,0.1
			c0,0.1-0.5,0.4-0.8,0.4c-0.5,0-0.8-0.3-0.8-0.8c0-1.1,1.1-2.2,1.9-2.2c0.4,0,0.9,0.2,0.9,1c0,0.9-0.7,2.3-1.7,3
			c-0.3,0.2-0.7,0.3-1.1,0.3c-0.2,0-0.4,0-0.6-0.1c-0.1-0.1-0.2-0.1-0.2-0.2c0-0.1,0-0.1,0.1-0.1c0.1,0,0.2,0.1,0.7,0.1
			c1,0,1.8-1.7,2.2-2.5c0.2-0.3,0.3-0.7,0.3-1C107.4,15.3,107.3,15.2,107,15.2"/>
		<g id="Group-38" transform="translate(0.000000, 13.000000)">
			<g id="Clip-37">
			</g>
			<defs>
				<filter id="Adobe_OpacityMaskFilter" filterUnits="userSpaceOnUse" x="26.8" y="-0.1" width="122.5" height="59.7">
					<feColorMatrix  type="matrix" values="1 0 0 0 0  0 1 0 0 0  0 0 1 0 0  0 0 0 1 0"/>
				</filter>
			</defs>
			<mask maskUnits="userSpaceOnUse" x="26.8" y="-0.1" width="122.5" height="59.7" id="mask-2_1_">
				<g class="st0">
					<path id="path-1_1_" class="st1" d="M26.8,10.1c0.1-0.2,0.2-0.3,0.4-0.3h121.5c0.3,0,0.5,0.2,0.5,0.5c0,0.3-0.2,0.5-0.5,0.5
						H27.3c-0.2,0-0.4-0.1-0.4-0.3V10.1L26.8,10.1z M26.8,46.8c0.1,0.2,0.2,0.3,0.4,0.3h121.5c0.3,0,0.5-0.2,0.5-0.5
						c0-0.3-0.2-0.5-0.5-0.5H27.3c-0.2,0-0.4,0.1-0.4,0.3V46.8L26.8,46.8z"/>
				</g>
			</mask>
			<polygon id="Fill-36" class="st2" points="26.8,59.6 149.3,59.6 149.3,-0.1 26.8,-0.1 			"/>
		</g>
	</g>
</g>
</svg>
