<svg xmlns="http://www.w3.org/2000/svg" xmlns:xlink="http://www.w3.org/1999/xlink" viewBox="0 0 162.87 30.54"><defs><style>.cls-1{fill:none;}.cls-2{clip-path:url(#clip-path);}.cls-3{fill:#fff;}</style><clipPath id="clip-path" transform="translate(0 0)"><rect class="cls-1" width="162.87" height="30.54"/></clipPath></defs><title>logo</title><g id="Layer_2" data-name="Layer 2"><g id="Layer_1-2" data-name="Layer 1"><g id="Logo_simple_white"><g class="cls-2"><polygon class="cls-3" points="0 0 0 30.54 13.09 30.54 13.09 26.18 4.36 26.18 4.36 0 0 0"/><g class="cls-2"><path class="cls-3" d="M31.63,26.18a4.3,4.3,0,0,1-4.36,4.36H20.72a4.32,4.32,0,0,1-4.36-4.36V0h4.36V26.18h6.55V0h4.36V26.18" transform="translate(0 0)"/><polygon class="cls-3" points="50.74 30.54 46.9 30.54 39.83 10.56 39.83 30.54 35.47 30.54 35.47 0 40.18 0 46.38 17.98 46.38 0 50.74 0 50.74 30.54"/><path class="cls-3" d="M58.94,26.18h6.55V4.36H58.94Zm10.91,0a4.32,4.32,0,0,1-4.36,4.36H54.58V0H65.49a4.2,4.2,0,0,1,3.09,1.26,4.21,4.21,0,0,1,1.27,3.1Z" transform="translate(0 0)"/><path class="cls-3" d="M78.05,26.18h6.54v-9.6H78.05Zm0-14h6.54V4.36H78.05ZM89,26.18a4.32,4.32,0,0,1-4.36,4.36H73.69V0H84.6a4.2,4.2,0,0,1,3.09,1.26A4.21,4.21,0,0,1,89,4.36V11a3.3,3.3,0,0,1-2.18,3.36A3.3,3.3,0,0,1,89,17.76Z" transform="translate(0 0)"/><polygon class="cls-3" points="105.89 30.54 92.8 30.54 92.8 0 105.89 0 105.89 4.36 97.16 4.36 97.16 12.22 103.7 12.22 103.7 16.58 97.16 16.58 97.16 26.18 105.89 26.18 105.89 30.54"/><path class="cls-3" d="M113.83,14h6.54V4.36h-6.54Zm10.9,16.58h-4.62l-2.88-12.22h-3.4V30.54h-4.37V0h10.91a4.22,4.22,0,0,1,3.1,1.26,4.24,4.24,0,0,1,1.26,3.1V14a3.74,3.74,0,0,1-3.44,4.15Z" transform="translate(0 0)"/><path class="cls-3" d="M143.8,26.18a4.32,4.32,0,0,1-4.36,4.36h-6.55a4.3,4.3,0,0,1-4.36-4.36V4.36A4.3,4.3,0,0,1,132.89,0h6.55a4.2,4.2,0,0,1,3.09,1.26,4.21,4.21,0,0,1,1.27,3.1V8.73h-4.36V4.36h-6.55V26.18h6.55V18.76h-3.28V14.4h7.64V26.18" transform="translate(0 0)"/><path class="cls-3" d="M160.77,17.06a6.32,6.32,0,0,1,2.1,4.62v4.5a4.32,4.32,0,0,1-4.37,4.36H152a4.3,4.3,0,0,1-4.36-4.36V21.82H152v4.36h6.54V21.12l-8.81-8.77a6.32,6.32,0,0,1-2.09-4.63V4.36a4.2,4.2,0,0,1,1.26-3.09A4.19,4.19,0,0,1,152,0h6.54a4.18,4.18,0,0,1,3.1,1.27,4.21,4.21,0,0,1,1.27,3.09V8.73H158.5V4.36H152V8.29l8.81,8.77" transform="translate(0 0)"/></g></g></g></g></g></svg>