<?xml version="1.0" encoding="utf-8"?>
<!-- Generator: Adobe Illustrator 22.0.1, SVG Export Plug-In . SVG Version: 6.00 Build 0)  -->
<svg version="1.1" id="Layer_1" xmlns="http://www.w3.org/2000/svg" xmlns:xlink="http://www.w3.org/1999/xlink" x="0px" y="0px"
	 viewBox="0 0 177 85" style="enable-background:new 0 0 177 85;" xml:space="preserve">
<style type="text/css">
	.st0{fill:#FFFFFF;}
	.st1{filter:url(#Adobe_OpacityMaskFilter);}
	.st2{mask:url(#mask-2_1_);fill:none;}
</style>
<title>Lundbergs_logo_tagline_center_grey_vect</title>
<desc>Created with Sketch.</desc>
<g id="Page-1">
	<g id="Lundbergs_logo_tagline_center_grey_vect">
		<path id="Fill-1" class="st0" d="M23.9,82.2c0-0.4-0.1-0.7-0.4-0.9l-2.7-2.7c-0.2-0.2-0.3-0.4-0.4-0.6c-0.1-0.3-0.2-0.5-0.2-0.9
			v-1c0-0.4,0.1-0.8,0.4-1.1c0.3-0.3,0.6-0.4,1.1-0.4h1.5c0.4,0,0.8,0.1,1.1,0.4c0.3,0.3,0.4,0.6,0.4,1.1v1.5h-0.7v-1.5
			c0-0.2-0.1-0.4-0.2-0.5c-0.1-0.1-0.3-0.2-0.5-0.2h-1.5c-0.2,0-0.4,0.1-0.5,0.2c-0.1,0.1-0.2,0.3-0.2,0.5v1c0,0.4,0.1,0.7,0.4,0.9
			l2.7,2.7c0.2,0.2,0.3,0.4,0.4,0.6c0.1,0.3,0.2,0.5,0.2,0.9v1.3c0,0.4-0.1,0.8-0.4,1.1c-0.3,0.3-0.6,0.4-1.1,0.4h-1.5
			c-0.4,0-0.8-0.1-1.1-0.4c-0.3-0.3-0.4-0.6-0.4-1.1V82h0.7v1.5c0,0.2,0.1,0.4,0.2,0.5c0.1,0.1,0.3,0.2,0.5,0.2h1.5
			c0.2,0,0.4-0.1,0.5-0.2c0.1-0.1,0.2-0.3,0.2-0.5V82.2"/>
		<polyline id="Fill-2" class="st0" points="30.6,85 26.9,85 26.9,74.6 30.6,74.6 30.6,75.4 27.7,75.4 27.7,79.1 29.9,79.1 
			29.9,79.9 27.7,79.9 27.7,84.3 30.6,84.3 30.6,85 		"/>
		<polyline id="Fill-3" class="st0" points="36.5,75.4 33.5,75.4 33.5,79.1 35.7,79.1 35.7,79.9 33.5,79.9 33.5,85 32.7,85 
			32.7,74.6 36.5,74.6 36.5,75.4 		"/>
		<path id="Fill-4" class="st0" d="M42.3,76.1c0-0.2-0.1-0.4-0.2-0.5c-0.1-0.1-0.3-0.2-0.5-0.2H40c-0.2,0-0.4,0.1-0.5,0.2
			c-0.1,0.1-0.2,0.3-0.2,0.5v7.4c0,0.2,0.1,0.4,0.2,0.5c0.1,0.1,0.3,0.2,0.5,0.2h1.5c0.2,0,0.4-0.1,0.5-0.2c0.1-0.1,0.2-0.3,0.2-0.5
			V76.1z M43,83.5c0,0.4-0.1,0.8-0.4,1.1c-0.3,0.3-0.6,0.4-1.1,0.4H40c-0.4,0-0.8-0.1-1.1-0.4c-0.3-0.3-0.4-0.6-0.4-1.1v-7.4
			c0-0.4,0.1-0.8,0.4-1.1c0.3-0.3,0.6-0.4,1.1-0.4h1.5c0.4,0,0.8,0.1,1.1,0.4c0.3,0.3,0.4,0.6,0.4,1.1V83.5L43,83.5z"/>
		<polyline id="Fill-5" class="st0" points="50.5,74.6 48.2,85 47.1,85 44.9,74.6 45.7,74.6 47.7,84.2 49.7,74.6 50.5,74.6 		"/>
		<polyline id="Fill-6" class="st0" points="56.2,85 52.5,85 52.5,74.6 56.2,74.6 56.2,75.4 53.2,75.4 53.2,79.1 55.5,79.1 
			55.5,79.9 53.2,79.9 53.2,84.3 56.2,84.3 56.2,85 		"/>
		<polyline id="Fill-7" class="st0" points="62.8,85 62.2,85 59.1,76.4 59.1,85 58.3,85 58.3,74.6 59.2,74.6 62,82.6 62,74.6 
			62.8,74.6 62.8,85 		"/>
		<polyline id="Fill-8" class="st0" points="69.3,75.4 67.5,75.4 67.5,85 66.7,85 66.7,75.4 64.9,75.4 64.9,74.6 69.3,74.6 
			69.3,75.4 		"/>
		<polyline id="Fill-9" class="st0" points="84.3,79.4 86.9,85 86,85 83.8,80.1 82.5,82.8 82.5,85 81.7,85 81.7,74.6 82.5,74.6 
			82.5,81.4 85.9,74.6 86.7,74.6 84.3,79.4 		"/>
		<polyline id="Fill-10" class="st0" points="97.1,74.6 95.3,85 94.2,85 92.8,76.8 91.4,85 90.3,85 88.5,74.6 89.2,74.6 90.8,83.9 
			92.5,74.6 93.1,74.6 94.8,83.9 96.4,74.6 97.1,74.6 		"/>
		<path id="Fill-11" class="st0" d="M102.7,82.2c0-0.4-0.1-0.7-0.4-0.9l-2.7-2.7c-0.2-0.2-0.3-0.4-0.4-0.6c-0.1-0.3-0.2-0.5-0.2-0.9
			v-1c0-0.4,0.1-0.8,0.4-1.1c0.3-0.3,0.6-0.4,1.1-0.4h1.5c0.4,0,0.8,0.1,1.1,0.4c0.3,0.3,0.4,0.6,0.4,1.1v1.5h-0.7v-1.5
			c0-0.2-0.1-0.4-0.2-0.5c-0.1-0.1-0.3-0.2-0.5-0.2h-1.5c-0.2,0-0.4,0.1-0.5,0.2c-0.1,0.1-0.2,0.3-0.2,0.5v1c0,0.4,0.1,0.7,0.4,0.9
			l2.7,2.7c0.2,0.2,0.3,0.4,0.4,0.6c0.1,0.3,0.2,0.5,0.2,0.9v1.3c0,0.4-0.1,0.8-0.4,1.1c-0.3,0.3-0.6,0.4-1.1,0.4h-1.5
			c-0.4,0-0.8-0.1-1.1-0.4c-0.3-0.3-0.4-0.6-0.4-1.1V82h0.7v1.5c0,0.2,0.1,0.4,0.2,0.5c0.1,0.1,0.3,0.2,0.5,0.2h1.5
			c0.2,0,0.4-0.1,0.5-0.2c0.1-0.1,0.2-0.3,0.2-0.5V82.2"/>
		<polyline id="Fill-12" class="st0" points="124.3,74.6 122.5,85 121.4,85 120,76.8 118.5,85 117.4,85 115.7,74.6 116.4,74.6 
			118,83.9 119.6,74.6 120.3,74.6 122,83.9 123.5,74.6 124.3,74.6 		"/>
		<path id="Fill-13" class="st0" d="M129.4,82.4l-1.4-6.9l-1.5,6.9H129.4z M130.7,85h-0.8l-0.4-1.9h-3.2L126,85h-0.8l2.2-10.4h1.1
			L130.7,85L130.7,85z"/>
		<path id="Fill-14" class="st0" d="M136.4,82.2c0-0.4-0.1-0.7-0.4-0.9l-2.7-2.7c-0.2-0.2-0.3-0.4-0.4-0.6c-0.1-0.3-0.2-0.5-0.2-0.9
			v-1c0-0.4,0.1-0.8,0.4-1.1c0.3-0.3,0.6-0.4,1.1-0.4h1.5c0.4,0,0.8,0.1,1.1,0.4c0.3,0.3,0.4,0.6,0.4,1.1v1.5h-0.7v-1.5
			c0-0.2-0.1-0.4-0.2-0.5c-0.1-0.1-0.3-0.2-0.5-0.2h-1.5c-0.2,0-0.4,0.1-0.5,0.2c-0.1,0.1-0.2,0.3-0.2,0.5v1c0,0.4,0.1,0.7,0.4,0.9
			l2.7,2.7c0.2,0.2,0.3,0.4,0.4,0.6c0.1,0.3,0.2,0.5,0.2,0.9v1.3c0,0.4-0.1,0.8-0.4,1.1c-0.3,0.3-0.6,0.4-1.1,0.4h-1.5
			c-0.4,0-0.8-0.1-1.1-0.4c-0.3-0.3-0.4-0.6-0.4-1.1V82h0.7v1.5c0,0.2,0.1,0.4,0.2,0.5c0.1,0.1,0.3,0.2,0.5,0.2h1.5
			c0.2,0,0.4-0.1,0.5-0.2c0.1-0.1,0.2-0.3,0.2-0.5V82.2"/>
		<polyline id="Fill-15" class="st0" points="143.6,75.4 141.8,75.4 141.8,85 141,85 141,75.4 139.2,75.4 139.2,74.6 143.6,74.6 
			143.6,75.4 		"/>
		<polyline id="Fill-16" class="st0" points="149.4,85 145.7,85 145.7,74.6 149.4,74.6 149.4,75.4 146.5,75.4 146.5,79.1 
			148.7,79.1 148.7,79.9 146.5,79.9 146.5,84.3 149.4,84.3 149.4,85 		"/>
		<path id="Fill-17" class="st0" d="M156,83.5c0,0.4-0.1,0.8-0.4,1.1c-0.3,0.3-0.6,0.4-1.1,0.4H153c-0.4,0-0.8-0.1-1.1-0.4
			c-0.3-0.3-0.4-0.6-0.4-1.1v-7.4c0-0.4,0.1-0.8,0.4-1.1c0.3-0.3,0.6-0.4,1.1-0.4h1.5c0.4,0,0.8,0.1,1.1,0.4
			c0.3,0.3,0.4,0.6,0.4,1.1v1.5h-0.7v-1.5c0-0.2-0.1-0.4-0.2-0.5c-0.1-0.1-0.3-0.2-0.5-0.2H153c-0.2,0-0.4,0.1-0.5,0.2
			c-0.1,0.1-0.2,0.3-0.2,0.5v7.4c0,0.2,0.1,0.4,0.2,0.5c0.1,0.1,0.3,0.2,0.5,0.2h1.5c0.2,0,0.4-0.1,0.5-0.2c0.1-0.1,0.2-0.3,0.2-0.5
			V82h0.7V83.5"/>
		<polyline id="Fill-18" class="st0" points="15.5,56.7 1.6,56.7 1.6,24.3 6.2,24.3 6.2,52.1 15.5,52.1 15.5,56.7 		"/>
		<path id="Fill-19" class="st0" d="M35.2,52.1c0,1.3-0.4,2.4-1.3,3.3c-0.9,0.9-2,1.3-3.3,1.3h-7c-1.3,0-2.4-0.4-3.3-1.3
			c-0.9-0.9-1.3-2-1.3-3.3V24.3h4.6v27.8h7V24.3h4.6V52.1"/>
		<polyline id="Fill-20" class="st0" points="55.5,56.7 51.4,56.7 43.9,35.5 43.9,56.7 39.3,56.7 39.3,24.3 44.3,24.3 50.8,43.4 
			50.8,24.3 55.5,24.3 55.5,56.7 		"/>
		<path id="Fill-21" class="st0" d="M64.2,52.1h7V28.9h-7V52.1z M75.8,52.1c0,1.3-0.4,2.4-1.3,3.3c-0.9,0.9-2,1.3-3.3,1.3H59.6V24.3
			h11.6c1.3,0,2.4,0.4,3.3,1.3c0.9,0.9,1.3,2,1.3,3.3V52.1L75.8,52.1z"/>
		<path id="Fill-22" class="st0" d="M84.5,52.1h7V41.9h-7V52.1z M84.5,37.3h7v-8.3h-7V37.3z M96.1,52.1c0,1.3-0.4,2.4-1.3,3.3
			c-0.9,0.9-2,1.3-3.3,1.3H79.9V24.3h11.6c1.3,0,2.4,0.4,3.3,1.3c0.9,0.9,1.3,2,1.3,3.3V36c0,1.8-0.8,3-2.3,3.6
			c1.5,0.6,2.3,1.8,2.3,3.6V52.1L96.1,52.1z"/>
		<polyline id="Fill-23" class="st0" points="114.1,56.7 100.2,56.7 100.2,24.3 114.1,24.3 114.1,28.9 104.8,28.9 104.8,37.3 
			111.8,37.3 111.8,41.9 104.8,41.9 104.8,52.1 114.1,52.1 114.1,56.7 		"/>
		<path id="Fill-24" class="st0" d="M122.5,39.1h7V28.9h-7V39.1z M134.1,56.7h-4.9l-3.1-13h-3.6v13h-4.6V24.3h11.6
			c1.3,0,2.4,0.4,3.3,1.3c0.9,0.9,1.3,2,1.3,3.3v10.2c0,2.5-1.2,4-3.7,4.4L134.1,56.7L134.1,56.7z"/>
		<path id="Fill-25" class="st0" d="M154.4,52.1c0,1.3-0.4,2.4-1.3,3.3c-0.9,0.9-2,1.3-3.3,1.3h-7c-1.3,0-2.4-0.4-3.3-1.3
			c-0.9-0.9-1.3-2-1.3-3.3V28.9c0-1.3,0.4-2.4,1.3-3.3c0.9-0.9,2-1.3,3.3-1.3h7c1.3,0,2.4,0.4,3.3,1.3c0.9,0.9,1.3,2,1.3,3.3v4.6
			h-4.6v-4.6h-7v23.2h7v-7.9h-3.5v-4.6h8.1V52.1"/>
		<path id="Fill-26" class="st0" d="M172.4,42.4c1.5,1.5,2.2,3.1,2.2,4.9v4.8c0,1.3-0.4,2.4-1.3,3.3c-0.9,0.9-2,1.3-3.3,1.3h-7
			c-1.3,0-2.4-0.4-3.3-1.3c-0.9-0.9-1.3-2-1.3-3.3v-4.6h4.6v4.6h7v-5.4l-9.4-9.3c-1.5-1.5-2.2-3.1-2.2-4.9v-3.6
			c0-1.3,0.4-2.4,1.3-3.3c0.9-0.9,2-1.3,3.3-1.3h7c1.3,0,2.4,0.4,3.3,1.3c0.9,0.9,1.3,2,1.3,3.3v4.6H170v-4.6h-7v4.2L172.4,42.4"/>
		<path id="Fill-27" class="st0" d="M63.2,5.5c0,0.1-0.1,0.1-0.1,0.1c-0.1,0-0.5-0.2-0.7-0.2c-1,0-1.5,0.8-1.5,1.8
			c0,1.4,1.3,2,3.2,2c1.5,0,2.8-1.1,2.8-2.4c0-2.2-2.9-3.2-2.9-4.8c0-1.1,1-1.6,2-1.6c0.9,0,2,0.6,2,1.2c0,0.5-0.3,0.7-0.5,0.7
			c-0.2,0-0.5-0.2-0.5-0.3c0-0.1,0-0.1,0.1-0.1c0.3,0,0.4-0.2,0.4-0.4c0-0.6-1-0.8-1.5-0.8c-0.7,0-1.3,0.3-1.3,1.1
			c0,1.4,2.9,2.4,2.9,4.6c0,2-1.8,3.1-3.4,3.1c-2.1,0-3.8-0.8-3.8-2.7c0-0.9,0.7-1.8,1.7-1.8C62.5,5.1,63.2,5.4,63.2,5.5"/>
		<path id="Fill-28" class="st0" d="M73,3.5C73,3.7,72.8,4,72.5,4S72,3.7,72,3.5C72,3.2,72.2,3,72.5,3S73,3.2,73,3.5z M71.9,5.6
			c0,0.1,0,0.1-0.1,0.2c-1,1.8-1.7,2.9-1.7,3.1c0,0.2,0.1,0.4,0.3,0.4c0.1,0,0.2-0.1,0.3-0.1c0,0,0.1,0,0.1,0.1
			c0,0.3-0.4,0.3-0.7,0.3c-0.3,0-0.5-0.1-0.8-0.1c-0.2,0-0.5,0.1-0.7,0.1c-0.3,0-0.3,0-0.3-0.1c0-0.1,0.2-0.2,0.4-0.2
			c0.4,0,1.1-1.8,1.9-3c-0.3,0-0.6,0.2-0.8,0.2c0,0-0.1,0-0.1-0.1c0-0.1,0.1-0.1,0.1-0.2c0.3-0.1,1.8-0.8,1.9-0.8
			C71.8,5.5,71.9,5.5,71.9,5.6L71.9,5.6z"/>
		<path id="Fill-29" class="st0" d="M76.7,5.8c-1,0-1.8,1.4-2.3,2.2c-0.2,0.3-0.5,0.8-0.5,1.1c0,0.1,0.1,0.2,0.2,0.2
			c0.2,0,0.3-0.3,0.4-0.3c0.1,0,0.1,0.1,0.1,0.1c0,0.2-0.6,0.4-0.7,0.4c-0.4,0-0.6-0.1-0.7-0.1c-0.2,0-0.5,0.1-0.7,0.1
			c-0.1,0-0.2,0-0.2-0.1c0-0.1,0.1-0.2,0.3-0.2c0.3,0,0.5-0.2,0.6-0.5c0.5-0.9,0.9-1.8,1.4-2.7c-0.2,0-0.6,0.2-0.8,0.2
			c-0.1,0-0.1,0-0.1-0.1c0-0.1,0.7-0.3,1.5-0.6c0.1,0,0.2-0.1,0.3-0.1c0.1,0,0.1,0.1,0.1,0.1c0,0.1-0.1,0.3-0.2,0.5
			c0.3-0.3,1.2-0.7,1.6-0.7c0.6,0,1.1,0.3,1.1,1c0,1.2-1.6,2.4-1.6,2.6c0,0.1,0.2,0.2,0.4,0.2c0.2,0,0.4-0.1,0.4-0.1
			c0.1,0,0.1,0,0.1,0.1c0,0.2-0.3,0.5-0.7,0.5c-0.3,0-0.5-0.1-0.7-0.1c-0.1,0-0.2,0.1-0.3,0.1c-0.1,0-0.2,0-0.2-0.1
			c0-0.1,0.2-0.3,0.3-0.5c0.4-0.4,1.3-1.7,1.3-2.5C77.3,6,77.1,5.8,76.7,5.8"/>
		<path id="Fill-30" class="st0" d="M82.3,5.4c0.6,0,0.8,0.1,1.2,0.1c0.2,0,0.3-0.1,0.4-0.1c0.2,0,0.2,0.4,0.2,0.6
			c0,0.4-0.3,0.9-0.8,0.9c-0.2,0-0.5-0.1-0.5-0.3c0-0.1,0.1-0.1,0.2-0.1c0.1,0,0.4-0.3,0.4-0.5c0-0.2-0.2-0.3-0.9-0.3
			c-1,0-2.1,1.1-2.1,2.1c0,0.7,0.4,1.4,1.2,1.4c1.1,0,1.8-1.2,1.9-1.2c0,0,0.1,0,0.1,0.1c0,0.2-0.1,0.3-0.6,0.8
			c-0.5,0.5-0.9,0.7-1.7,0.7c-1,0-1.7-0.7-1.7-1.7C79.6,6.4,80.9,5.4,82.3,5.4"/>
		<path id="Fill-31" class="st0" d="M88.3,5.6c-0.8,0-2.1,1-2.1,1.9c0.2,0,0.3,0.1,0.5,0.1c0.6,0,1.1-0.2,1.4-0.5
			C88.6,6.9,89,6.4,89,6C89,5.7,88.6,5.6,88.3,5.6z M89.1,5.2c0.4,0,0.7,0.2,0.7,0.6c0,0.4-0.5,1.1-1,1.5c-0.6,0.4-1.3,0.6-1.9,0.6
			c-0.2,0-0.4,0-0.6-0.1c0,0.7,0.7,1.2,1.3,1.2c0.6,0,1.1-0.2,1.3-0.4c0.1-0.1,0.2-0.2,0.3-0.2c0,0,0.1,0,0.1,0.1
			c0,0.2-0.7,0.6-0.9,0.7c-0.5,0.2-0.8,0.3-1.3,0.3c-1,0-1.8-0.6-1.8-1.6C85.3,6.3,87.6,5.2,89.1,5.2L89.1,5.2z"/>
		<path id="Fill-32" class="st0" d="M94.7,9.5c-0.1,0-0.2,0-0.2-0.1c0-0.1,0.1-0.1,0.3-0.1c0.4,0,0.8-1,0.9-1.3L97,5.1
			c0.4-0.8,0.4-0.9,0.4-1c-0.4,0-0.6,0.1-0.7,0.1c-0.1,0-0.1,0-0.1-0.1c0-0.1,1.5-0.6,1.5-0.6c0,0,0.1,0,0.1,0.1
			c0,0.1-0.1,0.3-0.1,0.4c-0.8,1.7-2.2,4.8-2.2,5.2c0,0.1,0.1,0.2,0.3,0.2c0.2,0,0.3-0.2,0.4-0.2c0,0,0.1,0,0.1,0.1
			c0,0.3-0.4,0.3-0.8,0.3c-0.2,0-0.4-0.1-0.6-0.1C95.1,9.5,94.9,9.5,94.7,9.5"/>
		<path id="Fill-33" class="st0" d="M103.8,3.7c-0.5,0-1,0.3-1,0.9c0,0.4,0.1,0.6,0.3,1c0.5-0.2,1.4-0.7,1.4-1.4
			C104.5,3.8,104.2,3.7,103.8,3.7z M101.2,9.3c1,0,1.8-0.6,1.8-1.6c0-0.5-0.3-1.1-0.5-1.6c-1,0.4-2.2,1.2-2.2,2.4
			C100.3,9,100.6,9.3,101.2,9.3z M102.4,5.9c-0.1-0.3-0.2-0.6-0.2-0.9c0-1.1,0.7-1.5,1.7-1.5c0.5,0,1.1,0.3,1.1,0.8
			c0,0.7-1.1,1.2-1.7,1.4c0.3,0.5,0.6,1.2,0.6,1.8c0,1.4-1.5,2-2.7,2c-0.7,0-1.4-0.4-1.4-1.2C99.8,7,101.3,6.3,102.4,5.9L102.4,5.9z
			"/>
		<path id="Fill-34" class="st0" d="M107,9.3c0.8,0,2.3-2.2,2.3-3c0-0.2-0.3-0.4-0.5-0.4c-0.6,0-1.1,0.7-1.2,0.7c0,0-0.1,0-0.1-0.1
			c0-0.3,0.9-0.9,1.4-0.9c0.7,0,0.9,0.5,0.9,1.1c0,1.3-1.3,2.7-2.6,2.7c-1,0-1.4-0.7-1.4-1.6c0-1.5,1.5-2.8,2.7-3.7
			c0.3-0.2,1.2-0.8,1.5-0.8c0.1,0,0.1,0,0.1,0c0,0.1-0.1,0.1-0.2,0.2c-1.5,0.9-3.4,3.1-3.4,4.9C106.5,9,106.5,9.3,107,9.3"/>
		<path id="Fill-35" class="st0" d="M114.9,3.7c-1,0-2.3,2.4-2.3,3.3c0,0.3,0.3,0.4,0.6,0.4c0.4,0,0.7-0.4,1-0.4
			c0.1,0,0.1,0.1,0.1,0.1c0,0.1-0.7,0.6-1.1,0.6c-0.7,0-1.1-0.4-1.1-1.1c0-1.5,1.5-3.1,2.7-3.1c0.6,0,1.3,0.3,1.3,1.4
			c0,1.3-1,3.2-2.4,4.2c-0.4,0.3-1,0.5-1.6,0.5c-0.3,0-0.6,0-0.8-0.1c-0.1-0.1-0.3-0.1-0.3-0.3c0-0.1,0.1-0.1,0.1-0.1
			c0.1,0,0.3,0.2,1,0.2c1.4,0,2.6-2.5,3.1-3.5c0.2-0.5,0.4-1,0.4-1.4C115.4,3.9,115.3,3.7,114.9,3.7"/>
		<g id="Clip-37">
		</g>
		<defs>
			<filter id="Adobe_OpacityMaskFilter" filterUnits="userSpaceOnUse" x="1.4" y="0.5" width="173.3" height="84.5">
				<feColorMatrix  type="matrix" values="1 0 0 0 0  0 1 0 0 0  0 0 1 0 0  0 0 0 1 0"/>
			</filter>
		</defs>
		<mask maskUnits="userSpaceOnUse" x="1.4" y="0.5" width="173.3" height="84.5" id="mask-2_1_">
			<g class="st1">
				<path id="path-1_1_" class="st0" d="M1.4,15c0.1-0.2,0.4-0.4,0.6-0.4h172c0.4,0,0.7,0.3,0.7,0.7c0,0.4-0.3,0.7-0.7,0.7H2.1
					c-0.3,0-0.5-0.2-0.6-0.4V15L1.4,15z M1.4,66.9c0.1,0.2,0.4,0.4,0.6,0.4h172c0.4,0,0.7-0.3,0.7-0.7s-0.3-0.7-0.7-0.7H2.1
					c-0.3,0-0.5,0.2-0.6,0.4V66.9L1.4,66.9z"/>
			</g>
		</mask>
		<polygon id="Fill-36" class="st2" points="1.4,85 174.7,85 174.7,0.5 1.4,0.5 		"/>
	</g>
</g>
</svg>
