<?xml version="1.0" encoding="UTF-8"?>
<svg width="177px" height="85px" viewBox="0 0 164 80" version="1.1" xmlns="http://www.w3.org/2000/svg" xmlns:xlink="http://www.w3.org/1999/xlink">
    <!-- Generator: Sketch 43.2 (39069) - http://www.bohemiancoding.com/sketch -->
    <title>Lundbergs_logo_tagline_center_grey_vect</title>
    <desc>Created with Sketch.</desc>
    <defs>
        <path d="M0.06,1.07556339 C0.163732551,0.850808769 0.391020192,0.695 0.655,0.695 L162.51,0.695 C162.871,0.695 163.165,0.988 163.165,1.35 C163.165,1.711 162.871,2.004 162.51,2.004 L0.655,2.004 C0.391020192,2.004 0.163732551,1.84819123 0.06,1.6238244 L0.06,1.07556339 L0.06,1.07556339 Z M0.06,49.9740046 C0.163732551,50.1986595 0.391020192,50.355 0.655,50.355 L162.51,50.355 C162.871,50.355 163.165,50.061 163.165,49.7 C163.165,49.339 162.871,49.045 162.51,49.045 L0.655,49.045 C0.391020192,49.045 0.163732551,49.2013405 0.06,49.4259954 L0.06,49.9740046 L0.06,49.9740046 Z" id="path-1"></path>
    </defs>
    <g id="Page-1" stroke="none" stroke-width="1" fill="none" fill-rule="evenodd">
        <g id="Lundbergs_logo_tagline_center_grey_vect">
            <path d="M21.18,77.375 C21.18,77.012 21.069,76.725 20.846,76.51 L18.263,73.941 C18.086,73.773 17.946,73.57 17.844,73.334 C17.742,73.096 17.69,72.828 17.69,72.531 L17.69,71.623 C17.69,71.232 17.825,70.902 18.095,70.632 C18.365,70.362 18.696,70.227 19.086,70.227 L20.483,70.227 C20.873,70.227 21.204,70.362 21.474,70.632 C21.743,70.902 21.879,71.232 21.879,71.623 L21.879,73.02 L21.18,73.02 L21.18,71.623 C21.18,71.428 21.113,71.263 20.978,71.127 C20.843,70.992 20.678,70.926 20.483,70.926 L19.086,70.926 C18.9,70.926 18.738,70.992 18.598,71.127 C18.458,71.263 18.389,71.428 18.389,71.623 L18.389,72.531 C18.389,72.903 18.5,73.191 18.723,73.396 L21.306,75.965 C21.483,76.133 21.622,76.335 21.725,76.572 C21.827,76.811 21.879,77.078 21.879,77.375 L21.879,78.603 C21.879,78.994 21.743,79.325 21.474,79.596 C21.204,79.865 20.873,80 20.483,80 L19.086,80 C18.696,80 18.365,79.865 18.095,79.596 C17.825,79.325 17.69,78.994 17.69,78.603 L17.69,77.207 L18.389,77.207 L18.389,78.603 C18.389,78.799 18.458,78.965 18.598,79.1 C18.738,79.234 18.9,79.302 19.086,79.302 L20.483,79.302 C20.678,79.302 20.843,79.234 20.978,79.1 C21.113,78.965 21.18,78.799 21.18,78.603 L21.18,77.375" id="Fill-1" fill="#000000"></path>
            <polyline id="Fill-2" fill="#000000" points="27.533 80 24.043 80 24.043 70.227 27.533 70.227 27.533 70.926 24.741 70.926 24.741 74.485 26.835 74.485 26.835 75.184 24.741 75.184 24.741 79.302 27.533 79.302 27.533 80"></polyline>
            <polyline id="Fill-3" fill="#000000" points="33.019 70.926 30.227 70.926 30.227 74.485 32.322 74.485 32.322 75.184 30.227 75.184 30.227 80 29.529 80 29.529 70.227 33.019 70.227 33.019 70.926"></polyline>
            <path d="M38.478,71.623 C38.478,71.428 38.41,71.263 38.276,71.127 C38.14,70.992 37.975,70.926 37.78,70.926 L36.384,70.926 C36.197,70.926 36.035,70.992 35.895,71.127 C35.756,71.263 35.686,71.428 35.686,71.623 L35.686,78.603 C35.686,78.799 35.756,78.965 35.895,79.1 C36.035,79.234 36.197,79.302 36.384,79.302 L37.78,79.302 C37.975,79.302 38.14,79.234 38.276,79.1 C38.41,78.965 38.478,78.799 38.478,78.603 L38.478,71.623 Z M39.176,78.603 C39.176,78.994 39.041,79.325 38.771,79.596 C38.501,79.865 38.171,80 37.78,80 L36.384,80 C35.993,80 35.662,79.865 35.392,79.596 C35.122,79.325 34.988,78.994 34.988,78.603 L34.988,71.623 C34.988,71.232 35.122,70.902 35.392,70.632 C35.662,70.362 35.993,70.227 36.384,70.227 L37.78,70.227 C38.171,70.227 38.501,70.362 38.771,70.632 C39.041,70.902 39.176,71.232 39.176,71.623 L39.176,78.603 L39.176,78.603 Z" id="Fill-4" fill="#000000"></path>
            <polyline id="Fill-5" fill="#000000" points="46.199 70.227 44.104 80 43.072 80 40.977 70.227 41.717 70.227 43.588 79.204 45.472 70.227 46.199 70.227"></polyline>
            <polyline id="Fill-6" fill="#000000" points="51.601 80 48.111 80 48.111 70.227 51.601 70.227 51.601 70.926 48.809 70.926 48.809 74.485 50.903 74.485 50.903 75.184 48.809 75.184 48.809 79.302 51.601 79.302 51.601 80"></polyline>
            <polyline id="Fill-7" fill="#000000" points="57.785 80 57.255 80 54.295 71.86 54.295 80 53.597 80 53.597 70.227 54.407 70.227 57.087 77.725 57.087 70.227 57.785 70.227 57.785 80"></polyline>
            <polyline id="Fill-8" fill="#000000" points="63.97 70.926 62.225 70.926 62.225 80 61.527 80 61.527 70.926 59.782 70.926 59.782 70.227 63.97 70.227 63.97 70.926"></polyline>
            <polyline id="Fill-9" fill="#000000" points="78.001 74.709 80.514 80 79.676 80 77.61 75.434 76.326 77.892 76.326 80 75.627 80 75.627 70.227 76.326 70.227 76.326 76.621 79.564 70.227 80.347 70.227 78.001 74.709"></polyline>
            <polyline id="Fill-10" fill="#000000" points="90.091 70.227 88.415 80 87.397 80 86.042 72.237 84.688 80 83.669 80 81.993 70.227 82.692 70.227 84.171 78.994 85.749 70.227 86.35 70.227 87.927 78.994 89.421 70.227 90.091 70.227"></polyline>
            <path d="M95.396,77.375 C95.396,77.012 95.284,76.725 95.061,76.51 L92.478,73.941 C92.301,73.773 92.161,73.57 92.06,73.334 C91.957,73.096 91.906,72.828 91.906,72.531 L91.906,71.623 C91.906,71.232 92.04,70.902 92.311,70.632 C92.58,70.362 92.911,70.227 93.302,70.227 L94.699,70.227 C95.089,70.227 95.419,70.362 95.69,70.632 C95.959,70.902 96.094,71.232 96.094,71.623 L96.094,73.02 L95.396,73.02 L95.396,71.623 C95.396,71.428 95.328,71.263 95.194,71.127 C95.059,70.992 94.894,70.926 94.699,70.926 L93.302,70.926 C93.116,70.926 92.953,70.992 92.814,71.127 C92.674,71.263 92.604,71.428 92.604,71.623 L92.604,72.531 C92.604,72.903 92.716,73.191 92.939,73.396 L95.522,75.965 C95.699,76.133 95.838,76.335 95.941,76.572 C96.043,76.811 96.094,77.078 96.094,77.375 L96.094,78.603 C96.094,78.994 95.959,79.325 95.69,79.596 C95.419,79.865 95.089,80 94.699,80 L93.302,80 C92.911,80 92.58,79.865 92.311,79.596 C92.04,79.325 91.906,78.994 91.906,78.603 L91.906,77.207 L92.604,77.207 L92.604,78.603 C92.604,78.799 92.674,78.965 92.814,79.1 C92.953,79.234 93.116,79.302 93.302,79.302 L94.699,79.302 C94.894,79.302 95.059,79.234 95.194,79.1 C95.328,78.965 95.396,78.799 95.396,78.603 L95.396,77.375" id="Fill-11" fill="#000000"></path>
            <polyline id="Fill-12" fill="#000000" points="115.653 70.227 113.978 80 112.958 80 111.605 72.237 110.25 80 109.231 80 107.556 70.227 108.253 70.227 109.734 78.994 111.311 70.227 111.911 70.227 113.49 78.994 114.983 70.227 115.653 70.227"></polyline>
            <path d="M120.47,77.557 L119.144,71.078 L117.776,77.557 L120.47,77.557 Z M121.741,80 L120.958,80 L120.623,78.255 L117.621,78.255 L117.273,80 L116.491,80 L118.585,70.227 L119.646,70.227 L121.741,80 L121.741,80 Z" id="Fill-13" fill="#000000"></path>
            <path d="M127.045,77.375 C127.045,77.012 126.934,76.725 126.71,76.51 L124.127,73.941 C123.95,73.773 123.811,73.57 123.708,73.334 C123.606,73.096 123.555,72.828 123.555,72.531 L123.555,71.623 C123.555,71.232 123.69,70.902 123.959,70.632 C124.23,70.362 124.56,70.227 124.95,70.227 L126.347,70.227 C126.738,70.227 127.069,70.362 127.338,70.632 C127.608,70.902 127.743,71.232 127.743,71.623 L127.743,73.02 L127.045,73.02 L127.045,71.623 C127.045,71.428 126.978,71.263 126.843,71.127 C126.707,70.992 126.542,70.926 126.347,70.926 L124.95,70.926 C124.765,70.926 124.602,70.992 124.462,71.127 C124.323,71.263 124.253,71.428 124.253,71.623 L124.253,72.531 C124.253,72.903 124.365,73.191 124.588,73.396 L127.171,75.965 C127.348,76.133 127.487,76.335 127.589,76.572 C127.692,76.811 127.743,77.078 127.743,77.375 L127.743,78.603 C127.743,78.994 127.608,79.325 127.338,79.596 C127.069,79.865 126.738,80 126.347,80 L124.95,80 C124.56,80 124.23,79.865 123.959,79.596 C123.69,79.325 123.555,78.994 123.555,78.603 L123.555,77.207 L124.253,77.207 L124.253,78.603 C124.253,78.799 124.323,78.965 124.462,79.1 C124.602,79.234 124.765,79.302 124.95,79.302 L126.347,79.302 C126.542,79.302 126.707,79.234 126.843,79.1 C126.978,78.965 127.045,78.799 127.045,78.603 L127.045,77.375" id="Fill-14" fill="#000000"></path>
            <polyline id="Fill-15" fill="#000000" points="133.886 70.926 132.141 70.926 132.141 80 131.443 80 131.443 70.926 129.698 70.926 129.698 70.227 133.886 70.227 133.886 70.926"></polyline>
            <polyline id="Fill-16" fill="#000000" points="139.359 80 135.868 80 135.868 70.227 139.359 70.227 139.359 70.926 136.567 70.926 136.567 74.485 138.66 74.485 138.66 75.184 136.567 75.184 136.567 79.302 139.359 79.302 139.359 80"></polyline>
            <path d="M145.515,78.603 C145.515,78.994 145.38,79.325 145.111,79.596 C144.84,79.865 144.51,80 144.119,80 L142.723,80 C142.332,80 142.001,79.865 141.732,79.596 C141.461,79.325 141.326,78.994 141.326,78.603 L141.326,71.623 C141.326,71.232 141.461,70.902 141.732,70.632 C142.001,70.362 142.332,70.227 142.723,70.227 L144.119,70.227 C144.51,70.227 144.84,70.362 145.111,70.632 C145.38,70.902 145.515,71.232 145.515,71.623 L145.515,73.02 L144.817,73.02 L144.817,71.623 C144.817,71.428 144.749,71.263 144.615,71.127 C144.48,70.992 144.315,70.926 144.119,70.926 L142.723,70.926 C142.536,70.926 142.374,70.992 142.235,71.127 C142.095,71.263 142.025,71.428 142.025,71.623 L142.025,78.603 C142.025,78.799 142.095,78.965 142.235,79.1 C142.374,79.234 142.536,79.302 142.723,79.302 L144.119,79.302 C144.315,79.302 144.48,79.234 144.615,79.1 C144.749,78.965 144.817,78.799 144.817,78.603 L144.817,77.207 L145.515,77.207 L145.515,78.603" id="Fill-17" fill="#000000"></path>
            <polyline id="Fill-18" fill="#000000" points="13.266 53.393 0.178 53.393 0.178 22.853 4.541 22.853 4.541 49.031 13.266 49.031 13.266 53.393"></polyline>
            <path d="M31.809,49.031 C31.809,50.252 31.387,51.285 30.544,52.129 C29.7,52.973 28.668,53.393 27.446,53.393 L20.902,53.393 C19.68,53.393 18.647,52.973 17.804,52.129 C16.96,51.285 16.539,50.252 16.539,49.031 L16.539,22.853 L20.902,22.853 L20.902,49.031 L27.446,49.031 L27.446,22.853 L31.809,22.853 L31.809,49.031" id="Fill-19" fill="#000000"></path>
            <polyline id="Fill-20" fill="#000000" points="50.918 53.393 47.079 53.393 40.011 33.412 40.011 53.393 35.648 53.393 35.648 22.853 40.36 22.853 46.555 40.828 46.555 22.853 50.918 22.853 50.918 53.393"></polyline>
            <path d="M59.12,49.031 L65.664,49.031 L65.664,27.216 L59.12,27.216 L59.12,49.031 Z M70.028,49.031 C70.028,50.252 69.606,51.285 68.763,52.129 C67.918,52.973 66.886,53.393 65.665,53.393 L54.758,53.393 L54.758,22.853 L65.665,22.853 C66.886,22.853 67.918,23.275 68.763,24.118 C69.606,24.962 70.028,25.995 70.028,27.216 L70.028,49.031 L70.028,49.031 Z" id="Fill-21" fill="#000000"></path>
            <path d="M78.229,49.031 L84.773,49.031 L84.773,39.431 L78.229,39.431 L78.229,49.031 Z M78.229,35.069 L84.773,35.069 L84.773,27.215 L78.229,27.215 L78.229,35.069 Z M89.137,49.031 C89.137,50.252 88.715,51.285 87.871,52.129 C87.028,52.973 85.995,53.393 84.774,53.393 L73.867,53.393 L73.867,22.853 L84.774,22.853 C85.995,22.853 87.028,23.275 87.871,24.118 C88.715,24.962 89.137,25.995 89.137,27.216 L89.137,33.891 C89.137,35.549 88.409,36.669 86.955,37.251 C88.409,37.833 89.137,38.952 89.137,40.61 L89.137,49.031 L89.137,49.031 Z" id="Fill-22" fill="#000000"></path>
            <polyline id="Fill-23" fill="#000000" points="106.065 53.393 92.976 53.393 92.976 22.853 106.065 22.853 106.065 27.216 97.339 27.216 97.339 35.069 103.883 35.069 103.883 39.432 97.339 39.432 97.339 49.031 106.065 49.031 106.065 53.393"></polyline>
            <path d="M114.005,36.814 L120.549,36.814 L120.549,27.215 L114.005,27.215 L114.005,36.814 Z M124.912,53.393 L120.287,53.393 L117.407,41.178 L114.005,41.178 L114.005,53.393 L109.642,53.393 L109.642,22.853 L120.549,22.853 C121.771,22.853 122.803,23.275 123.647,24.118 C124.491,24.962 124.912,25.995 124.912,27.216 L124.912,36.814 C124.912,39.199 123.763,40.582 121.465,40.959 L124.912,53.393 L124.912,53.393 Z" id="Fill-24" fill="#000000"></path>
            <path d="M143.978,49.031 C143.978,50.252 143.556,51.285 142.712,52.129 C141.868,52.973 140.836,53.393 139.615,53.393 L133.071,53.393 C131.849,53.393 130.816,52.973 129.973,52.129 C129.128,51.285 128.707,50.252 128.707,49.031 L128.707,27.216 C128.707,25.995 129.128,24.962 129.973,24.118 C130.816,23.275 131.849,22.853 133.071,22.853 L139.615,22.853 C140.836,22.853 141.868,23.275 142.712,24.118 C143.556,24.962 143.978,25.995 143.978,27.216 L143.978,31.579 L139.615,31.579 L139.615,27.216 L133.071,27.216 L133.071,49.031 L139.615,49.031 L139.615,41.613 L136.342,41.613 L136.342,37.251 L143.978,37.251 L143.978,49.031" id="Fill-25" fill="#000000"></path>
            <path d="M160.949,39.912 C162.345,41.279 163.043,42.82 163.043,44.537 L163.043,49.031 C163.043,50.252 162.621,51.285 161.779,52.129 C160.934,52.973 159.903,53.393 158.681,53.393 L152.136,53.393 C150.914,53.393 149.882,52.973 149.038,52.129 C148.195,51.285 147.774,50.252 147.774,49.031 L147.774,44.668 L152.136,44.668 L152.136,49.031 L158.681,49.031 L158.681,43.97 L149.867,35.2 C148.471,33.833 147.774,32.292 147.774,30.576 L147.774,27.216 C147.774,25.995 148.195,24.962 149.038,24.118 C149.882,23.275 150.914,22.853 152.136,22.853 L158.681,22.853 C159.903,22.853 160.934,23.275 161.779,24.118 C162.621,24.962 163.043,25.995 163.043,27.216 L163.043,31.579 L158.681,31.579 L158.681,27.216 L152.136,27.216 L152.136,31.143 L160.949,39.912" id="Fill-26" fill="#000000"></path>
            <path d="M58.184,5.209 C58.184,5.279 58.128,5.335 58.086,5.335 C57.974,5.335 57.652,5.182 57.414,5.182 C56.447,5.182 55.957,5.924 55.957,6.834 C55.957,8.109 57.218,8.726 58.983,8.726 C60.384,8.726 61.574,7.703 61.574,6.484 C61.574,4.369 58.828,3.486 58.828,1.932 C58.828,0.867 59.753,0.461 60.678,0.461 C61.532,0.461 62.555,1.007 62.555,1.596 C62.555,2.044 62.317,2.212 62.064,2.212 C61.868,2.212 61.56,2.03 61.56,1.918 C61.56,1.848 61.602,1.82 61.63,1.82 C61.868,1.82 62.05,1.609 62.05,1.427 C62.05,0.909 61.126,0.713 60.678,0.713 C60.033,0.713 59.417,1.021 59.417,1.736 C59.417,3.01 62.162,3.963 62.162,6.078 C62.162,7.927 60.468,8.978 58.926,8.978 C56.993,8.978 55.368,8.179 55.368,6.442 C55.368,5.616 56.027,4.789 56.993,4.789 C57.568,4.789 58.184,5.111 58.184,5.209" id="Fill-27" fill="#000000"></path>
            <path d="M67.383,3.276 C67.383,3.5 67.186,3.739 66.92,3.739 C66.654,3.739 66.458,3.5 66.458,3.276 C66.458,3.052 66.654,2.814 66.92,2.814 C67.186,2.814 67.383,3.052 67.383,3.276 Z M66.346,5.266 C66.346,5.335 66.304,5.377 66.262,5.448 C65.296,7.185 64.679,8.165 64.679,8.375 C64.679,8.543 64.791,8.726 64.973,8.726 C65.057,8.726 65.127,8.655 65.211,8.655 C65.254,8.655 65.309,8.669 65.309,8.711 C65.309,8.963 64.889,8.978 64.693,8.978 C64.455,8.978 64.217,8.921 63.979,8.921 C63.769,8.921 63.545,8.978 63.321,8.978 C63.068,8.978 63.012,8.992 63.012,8.879 C63.012,8.795 63.166,8.726 63.39,8.726 C63.783,8.726 64.469,6.988 65.156,5.924 C64.917,5.952 64.581,6.092 64.413,6.092 C64.385,6.092 64.343,6.078 64.343,6.022 C64.343,5.952 64.399,5.896 64.469,5.868 C64.777,5.742 66.122,5.14 66.234,5.14 C66.318,5.14 66.346,5.195 66.346,5.266 L66.346,5.266 Z" id="Fill-28" fill="#000000"></path>
            <path d="M70.854,5.448 C69.874,5.448 69.132,6.764 68.725,7.507 C68.571,7.773 68.263,8.277 68.263,8.571 C68.263,8.684 68.333,8.726 68.417,8.726 C68.585,8.726 68.697,8.487 68.795,8.487 C68.866,8.487 68.893,8.543 68.893,8.599 C68.893,8.768 68.375,8.978 68.249,8.978 C67.885,8.978 67.689,8.921 67.576,8.921 C67.409,8.921 67.115,8.978 66.89,8.978 C66.806,8.978 66.694,8.978 66.694,8.921 C66.694,8.852 66.82,8.726 66.96,8.726 C67.254,8.726 67.423,8.515 67.534,8.291 C67.997,7.436 68.403,6.596 68.851,5.742 C68.627,5.77 68.305,5.91 68.109,5.91 C68.053,5.91 68.039,5.882 68.039,5.84 C68.039,5.714 68.725,5.532 69.468,5.237 C69.58,5.195 69.678,5.14 69.748,5.14 C69.804,5.14 69.832,5.195 69.832,5.237 C69.832,5.35 69.692,5.56 69.664,5.728 C69.986,5.476 70.77,5.056 71.191,5.056 C71.779,5.056 72.199,5.364 72.199,5.98 C72.199,7.128 70.701,8.263 70.701,8.417 C70.701,8.543 70.883,8.585 71.107,8.585 C71.302,8.585 71.443,8.487 71.527,8.487 C71.583,8.487 71.639,8.501 71.639,8.543 C71.639,8.711 71.359,8.978 70.967,8.978 C70.728,8.978 70.532,8.921 70.35,8.921 C70.224,8.921 70.14,8.978 70.056,8.978 C69.958,8.978 69.902,8.936 69.902,8.894 C69.902,8.768 70.07,8.613 70.224,8.459 C70.644,8.039 71.415,6.862 71.415,6.078 C71.415,5.672 71.275,5.448 70.854,5.448" id="Fill-29" fill="#000000"></path>
            <path d="M76.188,5.056 C76.72,5.056 76.986,5.167 77.281,5.167 C77.476,5.167 77.575,5.056 77.701,5.056 C77.897,5.056 77.925,5.419 77.925,5.602 C77.925,6.008 77.617,6.442 77.168,6.442 C76.972,6.442 76.664,6.386 76.664,6.19 C76.664,6.106 76.762,6.05 76.846,6.05 C76.972,6.05 77.196,5.798 77.196,5.602 C77.196,5.377 77.014,5.308 76.328,5.308 C75.375,5.308 74.395,6.302 74.395,7.241 C74.395,7.871 74.815,8.585 75.515,8.585 C76.538,8.585 77.196,7.478 77.281,7.478 C77.308,7.478 77.365,7.493 77.365,7.549 C77.365,7.717 77.224,7.829 76.79,8.277 C76.328,8.768 75.908,8.978 75.207,8.978 C74.269,8.978 73.61,8.333 73.61,7.394 C73.61,6.036 74.857,5.056 76.188,5.056" id="Fill-30" fill="#000000"></path>
            <path d="M81.829,5.308 C81.032,5.308 79.897,6.288 79.897,7.143 C80.051,7.157 80.191,7.212 80.359,7.212 C80.919,7.212 81.354,7.059 81.703,6.778 C82.096,6.47 82.432,6.05 82.432,5.686 C82.432,5.35 82.11,5.308 81.829,5.308 Z M82.531,4.915 C82.88,4.915 83.216,5.098 83.216,5.518 C83.216,5.91 82.783,6.596 82.292,6.946 C81.732,7.339 81.102,7.465 80.499,7.465 C80.317,7.465 80.093,7.451 79.925,7.409 C79.925,8.067 80.597,8.585 81.129,8.585 C81.718,8.585 82.152,8.361 82.362,8.207 C82.489,8.109 82.573,8.025 82.657,8.025 C82.699,8.025 82.726,8.053 82.726,8.109 C82.726,8.305 82.026,8.684 81.913,8.739 C81.465,8.963 81.144,8.978 80.696,8.978 C79.785,8.978 79.029,8.403 79.029,7.451 C79.029,5.938 81.2,4.915 82.531,4.915 L82.531,4.915 Z" id="Fill-31" fill="#000000"></path>
            <path d="M87.863,8.978 C87.779,8.978 87.653,8.963 87.653,8.865 C87.653,8.781 87.722,8.726 87.947,8.726 C88.325,8.726 88.702,7.759 88.815,7.493 L90.034,4.775 C90.369,4.019 90.426,3.949 90.426,3.809 C90.062,3.809 89.866,3.865 89.795,3.865 C89.74,3.865 89.711,3.851 89.711,3.767 C89.711,3.668 91.098,3.178 91.155,3.178 C91.168,3.178 91.21,3.192 91.21,3.249 C91.21,3.36 91.14,3.5 91.084,3.626 C90.369,5.251 88.983,8.179 88.983,8.529 C88.983,8.627 89.053,8.726 89.235,8.726 C89.446,8.726 89.501,8.571 89.641,8.571 C89.669,8.571 89.711,8.599 89.711,8.655 C89.711,8.936 89.305,8.978 88.983,8.978 C88.786,8.978 88.605,8.921 88.409,8.921 C88.227,8.921 88.017,8.978 87.863,8.978" id="Fill-32" fill="#000000"></path>
            <path d="M96.432,3.515 C95.97,3.515 95.451,3.837 95.451,4.341 C95.451,4.705 95.577,4.915 95.732,5.237 C96.194,5.069 97.034,4.607 97.034,3.949 C97.034,3.613 96.754,3.515 96.432,3.515 Z M93.925,8.726 C94.835,8.726 95.606,8.179 95.606,7.227 C95.606,6.75 95.339,6.162 95.129,5.742 C94.191,6.078 93.098,6.834 93.098,7.955 C93.098,8.473 93.393,8.726 93.925,8.726 Z M95.045,5.546 C94.948,5.279 94.864,4.985 94.864,4.705 C94.864,3.711 95.522,3.263 96.432,3.263 C96.937,3.263 97.427,3.5 97.427,4.061 C97.427,4.747 96.376,5.224 95.829,5.419 C96.068,5.924 96.39,6.54 96.39,7.115 C96.39,8.389 94.933,8.978 93.868,8.978 C93.21,8.978 92.594,8.571 92.594,7.871 C92.594,6.61 94.051,5.952 95.045,5.546 L95.045,5.546 Z" id="Fill-33" fill="#000000"></path>
            <path d="M99.385,8.726 C100.156,8.726 101.556,6.666 101.556,5.924 C101.556,5.7 101.318,5.588 101.108,5.588 C100.575,5.588 100.072,6.288 99.959,6.288 C99.917,6.288 99.875,6.26 99.875,6.204 C99.875,5.882 100.688,5.335 101.192,5.335 C101.836,5.335 102.061,5.826 102.061,6.4 C102.061,7.591 100.856,8.978 99.623,8.978 C98.699,8.978 98.264,8.361 98.264,7.465 C98.264,6.008 99.721,4.789 100.785,4.005 C101.024,3.823 101.892,3.263 102.2,3.263 C102.256,3.263 102.313,3.263 102.313,3.305 C102.313,3.36 102.256,3.402 102.103,3.486 C100.701,4.327 98.909,6.428 98.909,8.123 C98.909,8.487 98.965,8.726 99.385,8.726" id="Fill-34" fill="#000000"></path>
            <path d="M106.848,3.515 C105.882,3.515 104.677,5.728 104.677,6.596 C104.677,6.904 104.915,6.975 105.196,6.975 C105.602,6.975 105.896,6.554 106.106,6.554 C106.176,6.554 106.218,6.61 106.218,6.68 C106.218,6.82 105.545,7.227 105.196,7.227 C104.523,7.227 104.145,6.806 104.145,6.176 C104.145,4.747 105.545,3.263 106.68,3.263 C107.254,3.263 107.87,3.557 107.87,4.579 C107.87,5.756 106.96,7.577 105.587,8.543 C105.167,8.837 104.663,8.978 104.074,8.978 C103.823,8.978 103.542,8.963 103.332,8.852 C103.206,8.781 103.038,8.711 103.038,8.613 C103.038,8.543 103.094,8.529 103.136,8.529 C103.262,8.529 103.403,8.726 104.089,8.726 C105.364,8.726 106.54,6.4 107.002,5.406 C107.212,4.957 107.338,4.495 107.338,4.075 C107.338,3.697 107.241,3.515 106.848,3.515" id="Fill-35" fill="#000000"></path>
            <g id="Group-38" transform="translate(0.000000, 13.000000)">
                <mask id="mask-2" fill="white">
                    <use xlink:href="#path-1"></use>
                </mask>
                <g id="Clip-37"></g>
                <polygon id="Fill-36" mask="url(#mask-2)" points="0.06 67 163.165 67 163.165 -12.539 0.06 -12.539"></polygon>
            </g>
        </g>
    </g>
</svg>
